<svg width="590" height="345" viewBox="0 0 590 345" fill="none" xmlns="http://www.w3.org/2000/svg">
<g clip-path="url(#clip0_1141_103695)">
<path d="M207.953 26.0559C151.361 49.8702 106.573 95.2909 83.4271 152.341C60.2808 209.391 60.6689 273.405 84.5062 330.323L511.403 150.838C487.453 94.002 442.057 48.947 385.171 25.5548C328.285 2.16255 264.553 2.34275 207.953 26.0559Z" fill="#EE7D6E"/>
<path d="M455.864 46.5879H90.8086V333.464H455.864V46.5879Z" fill="white"/>
<path d="M455.864 334.392H90.8082C90.5627 334.392 90.3274 334.294 90.1538 334.121C89.9803 333.947 89.8828 333.711 89.8828 333.465V46.5891C89.8828 46.3433 89.9803 46.1075 90.1538 45.9336C90.3274 45.7598 90.5627 45.6621 90.8082 45.6621H455.864C456.109 45.6621 456.345 45.7598 456.518 45.9336C456.692 46.1075 456.789 46.3433 456.789 46.5891V333.465C456.789 333.711 456.692 333.947 456.518 334.121C456.345 334.294 456.109 334.392 455.864 334.392ZM91.7335 332.538H454.938V47.5161H91.7335V332.538Z" fill="#1E2833"/>
<path d="M455.864 74.198L90.8082 74.0747C90.5627 74.0747 90.3274 73.977 90.1538 73.8032C89.9803 73.6293 89.8828 73.3935 89.8828 73.1477C89.8828 72.9018 89.9803 72.6661 90.1538 72.4922C90.3274 72.3184 90.5627 72.2207 90.8082 72.2207L455.864 72.3443C456.109 72.3443 456.345 72.442 456.518 72.6158C456.692 72.7897 456.789 73.0254 456.789 73.2713C456.789 73.5171 456.692 73.7529 456.518 73.9268C456.345 74.1006 456.109 74.1983 455.864 74.1983V74.198Z" fill="#1E2833"/>
<path d="M108.114 67.1215C111.146 67.1215 113.604 64.659 113.604 61.6213C113.604 58.5836 111.146 56.1211 108.114 56.1211C105.082 56.1211 102.623 58.5836 102.623 61.6213C102.623 64.659 105.082 67.1215 108.114 67.1215Z" fill="white"/>
<path d="M108.113 68.0497C106.845 68.0497 105.604 67.6728 104.549 66.9665C103.494 66.2603 102.672 65.2565 102.186 64.0821C101.7 62.9077 101.573 61.6154 101.821 60.3686C102.069 59.1219 102.68 57.9767 103.577 57.0778C104.474 56.1789 105.617 55.5668 106.862 55.3188C108.106 55.0708 109.396 55.1981 110.569 55.6846C111.741 56.171 112.743 56.9948 113.448 58.0518C114.153 59.1087 114.529 60.3513 114.529 61.6225C114.527 63.3265 113.851 64.9602 112.648 66.1651C111.445 67.37 109.814 68.0478 108.113 68.0497ZM108.113 57.0493C107.211 57.0493 106.328 57.3175 105.577 57.82C104.827 58.3226 104.241 59.0368 103.896 59.8724C103.55 60.7081 103.46 61.6276 103.636 62.5147C103.812 63.4018 104.247 64.2167 104.885 64.8563C105.524 65.4958 106.337 65.9314 107.223 66.1079C108.108 66.2843 109.026 66.1937 109.86 65.8476C110.695 65.5015 111.408 64.9153 111.909 64.1633C112.411 63.4112 112.679 62.527 112.679 61.6225C112.677 60.4101 112.196 59.2477 111.34 58.3903C110.484 57.533 109.324 57.0507 108.113 57.0493Z" fill="#1E2833"/>
<path d="M123.753 67.1215C126.785 67.1215 129.243 64.659 129.243 61.6213C129.243 58.5836 126.785 56.1211 123.753 56.1211C120.72 56.1211 118.262 58.5836 118.262 61.6213C118.262 64.659 120.72 67.1215 123.753 67.1215Z" fill="white"/>
<path d="M123.752 68.0497C122.483 68.0497 121.243 67.6728 120.188 66.9665C119.133 66.2603 118.311 65.2565 117.825 64.0821C117.339 62.9077 117.212 61.6154 117.46 60.3686C117.707 59.1219 118.318 57.9767 119.216 57.0778C120.113 56.1789 121.256 55.5668 122.501 55.3188C123.745 55.0708 125.035 55.1981 126.208 55.6846C127.38 56.171 128.382 56.9948 129.087 58.0518C129.792 59.1087 130.168 60.3513 130.168 61.6225C130.166 63.3265 129.49 64.9602 128.287 66.1651C127.084 67.37 125.453 68.0478 123.752 68.0497ZM123.752 57.0493C122.849 57.0493 121.967 57.3175 121.216 57.82C120.465 58.3226 119.88 59.0368 119.535 59.8724C119.189 60.7081 119.099 61.6276 119.275 62.5147C119.451 63.4018 119.886 64.2167 120.524 64.8563C121.163 65.4958 121.976 65.9314 122.862 66.1079C123.747 66.2843 124.665 66.1937 125.499 65.8476C126.334 65.5015 127.046 64.9153 127.548 64.1633C128.05 63.4112 128.317 62.527 128.317 61.6225C128.316 60.4101 127.835 59.2477 126.979 58.3903C126.123 57.533 124.963 57.0507 123.752 57.0493Z" fill="#1E2833"/>
<path d="M139.143 67.1215C142.175 67.1215 144.633 64.659 144.633 61.6213C144.633 58.5836 142.175 56.1211 139.143 56.1211C136.11 56.1211 133.652 58.5836 133.652 61.6213C133.652 64.659 136.11 67.1215 139.143 67.1215Z" fill="white"/>
<path d="M139.142 68.0497C137.873 68.0497 136.633 67.6728 135.578 66.9665C134.523 66.2603 133.701 65.2565 133.215 64.0821C132.729 62.9077 132.602 61.6154 132.85 60.3686C133.097 59.1219 133.708 57.9767 134.606 57.0778C135.503 56.1789 136.646 55.5668 137.891 55.3188C139.135 55.0708 140.425 55.1981 141.598 55.6846C142.77 56.171 143.772 56.9948 144.477 58.0518C145.182 59.1087 145.558 60.3513 145.558 61.6225C145.556 63.3265 144.88 64.9602 143.677 66.1652C142.474 67.3701 140.843 68.0478 139.142 68.0497ZM139.142 57.0493C138.239 57.0493 137.357 57.3175 136.606 57.82C135.855 58.3226 135.27 59.0368 134.925 59.8724C134.579 60.7081 134.489 61.6276 134.665 62.5147C134.841 63.4018 135.276 64.2167 135.914 64.8563C136.553 65.4958 137.366 65.9314 138.252 66.1079C139.137 66.2843 140.055 66.1937 140.889 65.8476C141.724 65.5015 142.436 64.9153 142.938 64.1633C143.44 63.4112 143.707 62.527 143.707 61.6225C143.706 60.4101 143.225 59.2477 142.369 58.3903C141.513 57.533 140.353 57.0507 139.142 57.0493Z" fill="#1E2833"/>
<path d="M305.533 204.786H235.147C232.563 204.786 230.469 206.881 230.469 209.464V279.901C230.469 282.485 232.563 284.579 235.147 284.579H305.533C308.117 284.579 310.211 282.485 310.211 279.901V209.464C310.211 206.881 308.117 204.786 305.533 204.786Z" fill="#BED359"/>
<path d="M202.283 204.786H131.436C128.852 204.786 126.758 206.881 126.758 209.464V280.362C126.758 282.946 128.852 285.04 131.436 285.04H202.283C204.867 285.04 206.961 282.946 206.961 280.362V209.464C206.961 206.881 204.867 204.786 202.283 204.786Z" fill="#BED359"/>
<path d="M306.916 102.854H236.53C233.946 102.854 231.852 104.948 231.852 107.531V177.968C231.852 180.552 233.946 182.646 236.53 182.646H306.916C309.499 182.646 311.594 180.552 311.594 177.968V107.531C311.594 104.948 309.499 102.854 306.916 102.854Z" fill="#BED359"/>
<path d="M411.549 102.394H340.701C338.118 102.394 336.023 104.488 336.023 107.072V177.97C336.023 180.553 338.118 182.648 340.701 182.648H411.549C414.132 182.648 416.227 180.553 416.227 177.97V107.072C416.227 104.488 414.132 102.394 411.549 102.394Z" fill="#BED359"/>
<path d="M202.744 102.854H132.358C129.774 102.854 127.68 104.948 127.68 107.531V177.968C127.68 180.552 129.774 182.646 132.358 182.646H202.744C205.327 182.646 207.422 180.552 207.422 177.968V107.531C207.422 104.948 205.327 102.854 202.744 102.854Z" fill="#BED359"/>
<path d="M410.166 203.863H339.78C337.196 203.863 335.102 205.958 335.102 208.541V278.978C335.102 281.562 337.196 283.656 339.78 283.656H410.166C412.749 283.656 414.844 281.562 414.844 278.978V208.541C414.844 205.958 412.749 203.863 410.166 203.863Z" fill="#BED359"/>
<path d="M492.293 311.722C497.91 311.939 503.901 316.615 506.787 319.525C509.146 321.878 515.384 329.743 515.384 329.743C518.395 333.769 524.913 333.521 534.69 333.428L517.06 289.738L497.786 278.002L510.449 273.172L505.111 259.733L488.661 266.112" fill="#BED359"/>
<path d="M455.422 316.863C455.453 317.297 492.48 315.006 492.48 315.006C492.59 314.998 492.698 314.968 492.797 314.919C492.895 314.869 492.983 314.801 493.055 314.718C493.127 314.634 493.182 314.537 493.217 314.433C493.251 314.328 493.265 314.217 493.256 314.108L489.501 267.228C489.479 267.014 489.38 266.816 489.221 266.671C489.14 266.593 489.041 266.536 488.933 266.504C488.825 266.472 488.711 266.465 488.601 266.485L482.735 266.949C482.269 266.98 430.623 273.637 430.685 274.071C430.188 274.102 455.422 316.863 455.422 316.863Z" fill="white"/>
<path d="M456.211 317.847C456.061 317.847 455.932 317.847 455.819 317.843C455.518 317.835 454.782 317.816 454.556 317.228C453.884 316.089 447.97 306.062 442.156 296.107C438.545 289.926 435.678 284.982 433.635 281.412C429.533 274.246 429.538 274.235 429.857 273.64C429.882 273.592 429.912 273.546 429.946 273.503C429.951 273.496 429.957 273.488 429.963 273.481C430.274 273.099 430.33 273.03 438.79 271.833C443.143 271.218 449.123 270.405 456.562 269.416C469.112 267.749 482.37 266.044 482.672 266.023L488.509 265.561C488.749 265.528 488.993 265.549 489.224 265.621C489.454 265.694 489.666 265.816 489.844 265.98C490.166 266.27 490.371 266.667 490.422 267.097C490.425 267.116 490.427 267.136 490.429 267.155L494.184 314.034C494.202 314.267 494.173 314.5 494.1 314.721C494.026 314.942 493.91 315.147 493.758 315.323C493.605 315.5 493.42 315.644 493.211 315.749C493.003 315.854 492.775 315.916 492.543 315.933C492.445 315.939 483.172 316.513 474.013 317.026C468.633 317.327 464.344 317.549 461.265 317.685C459.432 317.766 458.011 317.818 457.041 317.838C456.716 317.844 456.441 317.847 456.211 317.847ZM456.255 316.451C456.308 316.557 456.339 316.673 456.348 316.792C456.34 316.673 456.309 316.557 456.257 316.451H456.255ZM455.987 315.992C459.126 316.044 479.001 314.908 492.32 314.085L488.582 267.419L482.809 267.875C479.883 268.166 439.046 273.526 432.013 274.725C434.562 279.507 447.217 301.126 455.987 315.992Z" fill="#1E2833"/>
<path d="M409.64 310.98C408.492 315.842 405.947 319.991 402.905 321.415C394.028 319.898 385.369 325.564 385.741 332.469L426.928 332.841L445.24 314.077L449.399 324.666L462.869 319.186L452.472 296.365" fill="#BED359"/>
<path d="M375.377 278.128L408.4 313.179C408.557 313.335 408.769 313.424 408.99 313.427C409.086 313.421 409.18 313.4 409.269 313.365L453.498 297.542C453.777 297.449 431.585 274.845 431.585 274.845L467.433 274.257C473.769 274.249 479.843 271.734 484.323 267.265C488.803 262.795 491.324 256.736 491.332 250.415C491.354 245.214 489.651 240.152 486.49 236.016C486.408 235.914 486.304 235.831 486.186 235.772C486.068 235.713 485.939 235.68 485.808 235.676L406.259 236.883L392.757 237.1C388.026 237.172 383.418 238.615 379.494 241.254C375.571 243.892 372.501 247.612 370.659 251.96C368.817 256.309 368.282 261.097 369.12 265.743C369.957 270.39 372.131 274.692 375.377 278.128Z" fill="white"/>
<path d="M408.989 314.356C408.521 314.354 408.073 314.167 407.741 313.836L374.698 278.764L374.696 278.762C371.327 275.195 369.071 270.729 368.202 265.905C367.333 261.082 367.889 256.111 369.801 251.598C371.714 247.084 374.901 243.222 378.974 240.484C383.047 237.745 387.831 236.246 392.742 236.172L406.243 235.955L485.792 234.747C485.831 234.746 485.87 234.748 485.908 234.753C486.171 234.77 486.426 234.843 486.658 234.968C486.889 235.093 487.09 235.267 487.247 235.477C490.524 239.768 492.287 245.02 492.263 250.415C492.255 256.983 489.637 263.279 484.982 267.923C480.327 272.567 474.016 275.179 467.433 275.186L433.764 275.739C435.781 277.797 439.527 281.622 443.237 285.434C446.425 288.708 448.963 291.33 450.779 293.226C454.55 297.162 454.55 297.162 454.405 297.759C454.367 297.913 454.291 298.055 454.184 298.171C454.077 298.287 453.942 298.375 453.791 298.425L409.583 314.24C409.393 314.312 409.193 314.351 408.989 314.356ZM376.054 277.492L409.01 312.471L451.912 297.123C448.888 293.864 438.248 282.96 430.921 275.496C430.793 275.366 430.706 275.202 430.672 275.024C430.637 274.846 430.655 274.661 430.724 274.493C430.793 274.325 430.91 274.181 431.061 274.078C431.211 273.976 431.388 273.92 431.57 273.917L467.419 273.329C473.51 273.325 479.352 270.91 483.66 266.614C487.969 262.318 490.394 256.492 490.401 250.415C490.423 245.431 488.797 240.579 485.773 236.61L485.752 236.606L406.273 237.814L392.772 238.03C388.221 238.1 383.789 239.488 380.015 242.026C376.242 244.564 373.289 248.142 371.518 252.325C369.746 256.507 369.232 261.113 370.038 265.581C370.844 270.05 372.935 274.189 376.056 277.493L376.054 277.492Z" fill="#1E2833"/>
<path d="M497.942 276.795L503.156 270.85C503.969 269.913 504.458 268.741 504.553 267.506L507.842 236.418C508.96 229.605 508.091 222.731 502.163 218.799L473.298 197.062C470.318 194.926 466.47 193.656 462.993 194.864L450.268 199.508C449.492 199.849 448.282 200.995 447.816 201.707L433.849 221.276L416.934 207.59C414.792 206.011 410.385 204.617 408.616 206.599L398.808 220.533C397.846 222.236 398.063 225.859 399.553 227.128L412.434 237.254L428.107 237.099L441.826 236.51L480.654 237.13L478.202 265.957L489.965 258.371C496.234 259.052 499.4 262.892 500.269 269.116L497.942 276.795Z" fill="#EE7D6E"/>
<path d="M440.646 237.657C440.409 237.657 440.18 237.566 440.008 237.403C439.835 237.24 439.731 237.018 439.718 236.781C439.529 233.487 439.743 232.085 440.922 228.885C442.299 225.051 442.669 220.929 441.995 216.911C441.959 216.671 442.019 216.425 442.162 216.228C442.306 216.031 442.521 215.898 442.761 215.858C443.002 215.817 443.248 215.872 443.448 216.011C443.649 216.151 443.786 216.362 443.831 216.602C444.558 220.935 444.159 225.382 442.673 229.517C441.576 232.495 441.403 233.631 441.577 236.677C441.591 236.922 441.507 237.164 441.342 237.348C441.178 237.532 440.947 237.643 440.701 237.657C440.682 237.657 440.664 237.657 440.646 237.657Z" fill="#1E2833"/>
<path d="M402.501 237.875C402.254 237.875 402.017 237.778 401.842 237.604C401.667 237.431 401.568 237.195 401.568 236.948C401.567 236.702 401.664 236.465 401.838 236.291C402.013 236.116 402.249 236.018 402.496 236.017L478.065 235.596L467.296 224.718C467.211 224.631 467.143 224.528 467.096 224.415C467.05 224.302 467.027 224.181 467.028 224.059C467.029 223.937 467.053 223.816 467.101 223.704C467.148 223.592 467.218 223.49 467.305 223.404C467.392 223.318 467.495 223.25 467.608 223.204C467.721 223.158 467.843 223.135 467.965 223.136C468.087 223.137 468.208 223.161 468.321 223.209C468.434 223.256 468.536 223.325 468.622 223.412L480.944 235.86C481.072 235.99 481.16 236.155 481.195 236.334C481.23 236.513 481.211 236.699 481.141 236.868C481.071 237.037 480.952 237.181 480.8 237.283C480.648 237.385 480.469 237.44 480.286 237.441L402.507 237.875H402.501Z" fill="#1E2833"/>
<path d="M457.716 168.917C467.83 168.917 476.028 160.737 476.028 150.648C476.028 140.558 467.83 132.379 457.716 132.379C447.603 132.379 439.404 140.558 439.404 150.648C439.404 160.737 447.603 168.917 457.716 168.917Z" fill="white"/>
<path d="M457.716 169.846C453.91 169.846 450.189 168.72 447.025 166.61C443.86 164.501 441.394 161.503 439.937 157.995C438.481 154.487 438.1 150.627 438.842 146.903C439.585 143.179 441.418 139.758 444.109 137.073C446.8 134.388 450.229 132.56 453.962 131.819C457.694 131.078 461.564 131.459 465.08 132.912C468.596 134.365 471.601 136.825 473.716 139.982C475.83 143.139 476.959 146.851 476.959 150.648C476.953 155.738 474.924 160.617 471.316 164.216C467.709 167.815 462.818 169.84 457.716 169.846ZM457.716 133.308C454.278 133.308 450.918 134.325 448.059 136.23C445.201 138.136 442.973 140.844 441.658 144.012C440.342 147.181 439.998 150.667 440.669 154.031C441.34 157.394 442.995 160.484 445.426 162.909C447.856 165.334 450.953 166.986 454.325 167.655C457.697 168.324 461.191 167.98 464.367 166.668C467.543 165.356 470.258 163.133 472.167 160.282C474.077 157.43 475.097 154.077 475.097 150.648C475.092 146.051 473.259 141.643 470 138.393C466.742 135.142 462.324 133.313 457.716 133.308Z" fill="#1E2833"/>
<path d="M462.096 180.344C462.189 181.025 462.251 181.706 462.282 182.388C462.303 183.342 462.231 184.296 462.065 185.236L466.006 194.742C466.006 194.742 466.596 196.136 467.31 197.901C467.714 198.872 467.922 199.914 467.923 200.966C467.923 202.018 467.716 203.06 467.312 204.032C466.909 205.004 466.317 205.887 465.571 206.631C464.825 207.375 463.939 207.965 462.965 208.367C461.991 208.77 460.947 208.978 459.892 208.978C458.837 208.978 457.793 208.771 456.819 208.369C455.844 207.966 454.959 207.376 454.214 206.632C453.468 205.887 452.877 205.004 452.474 204.032L449.898 197.839C448.98 198.037 448.044 198.141 447.105 198.148C445.073 198.192 443.052 197.836 441.158 197.1C439.264 196.364 437.534 195.263 436.066 193.86C434.599 192.456 433.424 190.778 432.607 188.921C431.79 187.064 431.348 185.065 431.307 183.038C431.279 181.185 431.573 179.341 432.176 177.588C431.475 175.865 431.097 174.029 431.058 172.169C431.044 171.508 431.075 170.845 431.151 170.188L437.212 159.465" fill="white"/>
<path d="M459.889 209.915C458.117 209.91 456.387 209.383 454.914 208.4C453.442 207.417 452.294 206.022 451.614 204.39L449.326 198.89C448.592 199.012 447.849 199.075 447.104 199.078C442.757 199.167 438.552 197.529 435.415 194.525C432.277 191.521 430.465 187.396 430.375 183.059C430.347 181.213 430.621 179.374 431.186 177.616C430.522 175.88 430.163 174.043 430.127 172.185C430.111 171.476 430.145 170.767 430.228 170.063C430.244 169.947 430.282 169.835 430.34 169.732L436.399 159.01C436.46 158.904 436.54 158.81 436.636 158.735C436.732 158.66 436.843 158.604 436.96 158.571C437.078 158.538 437.201 158.529 437.323 158.544C437.444 158.559 437.561 158.597 437.668 158.657C437.774 158.717 437.868 158.797 437.944 158.893C438.019 158.989 438.075 159.099 438.108 159.217C438.14 159.334 438.15 159.457 438.135 159.578C438.12 159.699 438.082 159.816 438.022 159.922L432.052 170.485C431.999 171.046 431.979 171.608 431.99 172.171C432.027 173.912 432.383 175.631 433.041 177.244C433.123 177.45 433.129 177.678 433.058 177.888C432.49 179.54 432.213 181.278 432.238 183.024C432.278 184.929 432.693 186.807 433.461 188.552C434.229 190.296 435.334 191.873 436.713 193.192C438.092 194.51 439.717 195.544 441.497 196.236C443.277 196.927 445.176 197.262 447.085 197.221C447.968 197.214 448.847 197.117 449.71 196.93C449.922 196.887 450.143 196.918 450.334 197.019C450.525 197.12 450.676 197.284 450.759 197.484L453.335 203.677C453.691 204.537 454.214 205.319 454.874 205.978C455.534 206.636 456.318 207.158 457.18 207.514C458.04 207.873 458.962 208.057 459.894 208.056C460.826 208.056 461.748 207.87 462.607 207.51C464.345 206.79 465.725 205.412 466.446 203.677C467.166 201.943 467.168 199.995 466.451 198.259C465.744 196.512 465.155 195.119 465.149 195.105L461.205 185.592C461.138 185.432 461.118 185.256 461.147 185.085C461.303 184.205 461.372 183.312 461.352 182.418C461.322 181.78 461.263 181.12 461.173 180.47C461.156 180.349 461.163 180.226 461.194 180.107C461.225 179.989 461.279 179.878 461.353 179.78C461.427 179.683 461.519 179.601 461.625 179.539C461.731 179.477 461.848 179.437 461.97 179.42C462.091 179.404 462.215 179.411 462.333 179.442C462.452 179.474 462.563 179.528 462.661 179.602C462.758 179.677 462.84 179.769 462.901 179.875C462.963 179.981 463.003 180.098 463.019 180.22C463.115 180.924 463.18 181.64 463.213 182.346C463.237 183.276 463.175 184.207 463.026 185.125L466.868 194.389C466.871 194.396 467.466 195.803 468.174 197.554C468.734 198.913 468.949 200.388 468.803 201.85C468.656 203.312 468.151 204.715 467.332 205.936C466.514 207.158 465.407 208.159 464.109 208.853C462.811 209.547 461.361 209.912 459.889 209.915Z" fill="#1E2833"/>
<path d="M430.404 170.062C430.901 165.417 432.205 162.321 434.688 159.936C436.293 158.398 438.186 157.191 440.26 156.384C442.333 155.576 444.546 155.184 446.771 155.23C448.996 155.276 451.191 155.759 453.229 156.652C455.267 157.544 457.108 158.829 458.648 160.432C461.069 162.949 462.652 166.149 463.18 169.597L463.304 170.433C463.366 170.836 459.3 168.483 457.873 168.545C450.92 168.854 451.634 174.799 451.262 174.799H451.199C442.428 173.213 435.184 165.851 435.184 165.851L431.677 170.557C431.582 170.691 431.444 170.788 431.286 170.833C431.128 170.878 430.96 170.868 430.808 170.805C430.676 170.733 430.568 170.625 430.496 170.493C430.424 170.361 430.393 170.211 430.404 170.062Z" fill="white"/>
<path d="M451.261 175.728H451.199C451.143 175.728 451.088 175.723 451.033 175.713C443.656 174.379 437.439 169.207 435.302 167.248L432.435 171.097C432.218 171.399 431.905 171.62 431.547 171.724C431.189 171.827 430.807 171.807 430.461 171.667C430.438 171.657 430.414 171.647 430.391 171.636C430.09 171.48 429.843 171.238 429.68 170.942C429.518 170.645 429.447 170.307 429.477 169.97V169.964C429.997 165.097 431.405 161.798 434.04 159.268C435.733 157.645 437.731 156.371 439.918 155.519C442.105 154.667 444.439 154.253 446.787 154.302C449.134 154.35 451.449 154.859 453.599 155.801C455.749 156.742 457.693 158.097 459.318 159.788C461.871 162.444 463.54 165.821 464.097 169.458L464.221 170.297C464.248 170.469 464.227 170.644 464.162 170.804C464.097 170.964 463.99 171.104 463.851 171.209C463.313 171.617 462.846 171.406 461.303 170.708C460.328 170.267 458.518 169.454 457.909 169.473C453.034 169.69 452.56 172.858 452.332 174.381C452.265 174.851 452.134 175.728 451.261 175.728ZM435.184 164.921C435.307 164.922 435.43 164.946 435.544 164.994C435.658 165.042 435.761 165.112 435.848 165.2C435.916 165.269 442.544 171.919 450.554 173.721C450.856 171.91 451.892 167.881 457.83 167.617C458.808 167.586 460.265 168.198 462.075 169.016L462.137 169.044C461.426 165.468 459.513 162.241 456.713 159.898C453.913 157.554 450.395 156.235 446.741 156.159C444.639 156.109 442.548 156.476 440.59 157.24C438.631 158.003 436.844 159.148 435.333 160.606C433.151 162.701 431.963 165.341 431.429 169.333L434.436 165.296C434.517 165.189 434.619 165.1 434.737 165.036C434.855 164.972 434.985 164.934 435.119 164.925C435.141 164.921 435.163 164.921 435.184 164.921H435.184ZM462.382 170.565V170.574V170.565Z" fill="#1E2833"/>
<path d="M460.231 181.394C461.272 180.996 462.196 180.346 462.922 179.503C463.648 178.659 464.153 177.65 464.39 176.564C464.753 174.847 464.417 173.058 463.456 171.589C462.496 170.119 460.99 169.091 459.269 168.73C457.549 168.368 455.755 168.704 454.282 169.662C452.81 170.62 451.779 172.123 451.417 173.839C451.236 174.695 451.226 175.579 451.386 176.44" fill="white"/>
<path d="M460.232 182.324C460.016 182.324 459.805 182.248 459.638 182.11C459.471 181.972 459.357 181.781 459.317 181.568C459.276 181.355 459.312 181.135 459.416 180.946C459.521 180.756 459.689 180.609 459.891 180.53C460.787 180.185 461.584 179.625 462.21 178.899C462.837 178.173 463.273 177.303 463.481 176.368C463.782 174.896 463.486 173.366 462.66 172.112C461.833 170.857 460.543 169.98 459.07 169.671C457.597 169.362 456.062 169.647 454.799 170.463C453.536 171.28 452.648 172.562 452.329 174.029C452.174 174.768 452.165 175.529 452.302 176.271C452.325 176.391 452.323 176.514 452.298 176.634C452.272 176.753 452.223 176.866 452.154 176.967C452.085 177.067 451.996 177.153 451.894 177.22C451.791 177.286 451.676 177.332 451.556 177.354C451.436 177.376 451.312 177.374 451.193 177.349C451.073 177.323 450.96 177.275 450.859 177.206C450.758 177.136 450.672 177.048 450.606 176.946C450.539 176.844 450.493 176.729 450.471 176.609C450.29 175.63 450.302 174.626 450.506 173.651C450.918 171.694 452.093 169.979 453.772 168.886C455.451 167.792 457.496 167.409 459.459 167.82C461.421 168.231 463.139 169.403 464.235 171.078C465.331 172.753 465.715 174.794 465.303 176.752C465.032 177.988 464.458 179.138 463.632 180.098C462.807 181.059 461.756 181.801 460.574 182.259C460.465 182.302 460.349 182.324 460.232 182.324Z" fill="#1E2833"/>
<path d="M436.611 186.721C436.472 186.721 436.335 186.69 436.21 186.63L432.703 184.958C432.485 184.854 432.316 184.669 432.231 184.443C432.147 184.217 432.154 183.967 432.251 183.747L435.014 177.461C435.113 177.235 435.298 177.058 435.528 176.968C435.758 176.878 436.015 176.883 436.241 176.982C436.467 177.081 436.645 177.266 436.735 177.496C436.825 177.725 436.82 177.981 436.721 178.207L434.321 183.669L437.014 184.953C437.205 185.044 437.359 185.197 437.452 185.387C437.544 185.577 437.568 185.792 437.521 185.998C437.474 186.204 437.359 186.388 437.193 186.519C437.028 186.65 436.822 186.721 436.611 186.721Z" fill="#1E2833"/>
<path d="M441.05 179.939C441.684 179.939 442.198 179.426 442.198 178.793C442.198 178.16 441.684 177.647 441.05 177.647C440.416 177.647 439.901 178.16 439.901 178.793C439.901 179.426 440.416 179.939 441.05 179.939Z" fill="#1E2833"/>
<path d="M432.671 180.87C433.305 180.87 433.819 180.358 433.819 179.725C433.819 179.092 433.305 178.579 432.671 178.579C432.037 178.579 431.523 179.092 431.523 179.725C431.523 180.358 432.037 180.87 432.671 180.87Z" fill="#1E2833"/>
<path d="M439.061 190.993C438.224 190.994 437.405 190.745 436.711 190.278L436.198 189.947C436.093 189.882 436.001 189.797 435.93 189.696C435.858 189.595 435.807 189.482 435.78 189.361C435.752 189.241 435.75 189.116 435.771 188.994C435.793 188.873 435.839 188.757 435.906 188.653C435.973 188.549 436.061 188.46 436.163 188.39C436.265 188.32 436.381 188.272 436.502 188.247C436.623 188.222 436.748 188.222 436.87 188.246C436.991 188.27 437.107 188.318 437.209 188.387L437.737 188.728C438 188.904 438.296 189.026 438.607 189.087C438.918 189.149 439.238 189.148 439.549 189.086C439.86 189.024 440.155 188.902 440.419 188.726C440.682 188.55 440.908 188.323 441.083 188.06C441.129 187.994 441.171 187.926 441.208 187.855L441.27 187.729C441.38 187.509 441.574 187.342 441.809 187.264C442.043 187.186 442.299 187.205 442.519 187.315C442.74 187.426 442.908 187.619 442.986 187.853C443.064 188.087 443.045 188.342 442.935 188.562L442.872 188.686C442.801 188.827 442.72 188.962 442.63 189.092C442.237 189.677 441.706 190.156 441.083 190.487C440.461 190.819 439.766 190.993 439.061 190.993Z" fill="#1E2833"/>
<path d="M449.957 198.736C449.727 198.736 449.504 198.65 449.333 198.496C449.162 198.342 449.055 198.13 449.031 197.901C449.008 197.672 449.07 197.443 449.207 197.257C449.343 197.072 449.544 196.944 449.769 196.897C452.301 196.38 454.647 195.195 456.563 193.466C456.654 193.382 456.759 193.316 456.875 193.274C456.991 193.231 457.114 193.212 457.237 193.217C457.36 193.222 457.481 193.251 457.593 193.303C457.704 193.355 457.805 193.429 457.888 193.52C457.97 193.611 458.034 193.717 458.076 193.833C458.117 193.949 458.135 194.072 458.128 194.195C458.122 194.318 458.091 194.438 458.037 194.549C457.983 194.659 457.908 194.758 457.816 194.84C455.653 196.793 453.005 198.132 450.147 198.716C450.084 198.729 450.021 198.736 449.957 198.736Z" fill="#1E2833"/>
<path d="M455.514 177.402C455.333 177.402 455.157 177.349 455.006 177.251C454.855 177.153 454.735 177.013 454.662 176.848C454.59 176.683 454.566 176.501 454.595 176.323C454.624 176.146 454.705 175.98 454.826 175.847L458.675 171.636C458.841 171.454 459.073 171.345 459.32 171.334C459.567 171.323 459.808 171.41 459.99 171.576C460.173 171.742 460.282 171.973 460.293 172.219C460.304 172.465 460.217 172.706 460.051 172.888L457.849 175.297L460.787 174.992C461.033 174.966 461.278 175.039 461.47 175.194C461.662 175.35 461.784 175.575 461.81 175.82C461.835 176.065 461.762 176.31 461.607 176.501C461.451 176.693 461.225 176.814 460.98 176.84L455.61 177.397C455.578 177.4 455.546 177.402 455.514 177.402Z" fill="#1E2833"/>
<path d="M490.925 258.435C498.685 259.023 504.116 268.591 498.53 274.784C498.468 274.877 498.374 274.939 498.312 275.031C495.736 277.694 493.626 280.822 494.805 286.086C495.643 289.801 497.474 295.251 493.936 295.901C491.484 296.366 489.063 290.111 487.139 285.528C486.922 292.65 486.611 301.97 483.383 302.063C480.156 302.156 479.318 297.388 479.69 288.16C477.517 298.224 478.169 301.784 475.065 301.506C469.913 301.041 473.172 280.202 476.214 273.297C476.214 273.297 476.897 271.625 479.069 265.525C481.211 259.302 486.86 258.125 490.925 258.435Z" fill="white"/>
<path d="M483.291 302.993C482.831 303.001 482.373 302.914 481.948 302.738C481.523 302.562 481.138 302.301 480.818 301.971C479.914 301.059 479.312 299.525 478.983 297.18C478.718 298.673 478.474 299.765 478.109 300.581C477.493 301.958 476.47 302.563 474.983 302.43C474.318 302.37 473.375 302.041 472.65 300.817C469.702 295.835 472.662 279.053 475.362 272.922C475.362 272.922 476.064 271.191 478.193 265.212C480.893 257.364 488.676 257.329 490.997 257.507C495.297 257.833 499.304 260.837 500.97 264.984C502.461 268.7 501.837 272.479 499.257 275.365C499.203 275.435 499.144 275.501 499.08 275.563L499.064 275.579C499.039 275.612 499.012 275.644 498.983 275.674C496.276 278.473 494.684 281.279 495.715 285.881C495.814 286.319 495.927 286.783 496.043 287.26C496.754 290.173 497.559 293.476 496.303 295.409C496.057 295.785 495.734 296.104 495.355 296.346C494.976 296.588 494.55 296.747 494.106 296.813C491.652 297.28 489.714 293.833 487.912 289.742C487.54 297.427 486.671 302.896 483.412 302.99C483.371 302.993 483.331 302.993 483.291 302.993ZM479.691 287.232C479.73 287.232 479.769 287.234 479.809 287.239C480.04 287.268 480.252 287.383 480.403 287.561C480.553 287.739 480.632 287.967 480.622 288.199C480.44 292.709 480.4 298.908 482.143 300.667C482.299 300.829 482.488 300.955 482.698 301.036C482.908 301.117 483.133 301.15 483.358 301.135C483.676 301.125 484.77 300.749 485.471 296.288C485.978 293.062 486.106 288.869 486.209 285.5C486.215 285.288 486.295 285.085 486.433 284.924C486.571 284.762 486.761 284.654 486.97 284.615C487.179 284.576 487.395 284.61 487.583 284.711C487.77 284.812 487.917 284.974 487.999 285.17L488.388 286.1C489.294 288.274 490.322 290.739 491.375 292.544C492.786 294.965 493.561 295.027 493.763 294.99C493.959 294.97 494.149 294.907 494.318 294.805C494.487 294.703 494.631 294.566 494.74 294.402C495.56 293.14 494.824 290.125 494.234 287.702C494.115 287.214 493.999 286.739 493.898 286.29C492.617 280.576 495.041 277.088 497.6 274.431C497.651 274.368 497.706 274.307 497.764 274.251L497.78 274.235C497.798 274.21 497.818 274.186 497.838 274.162C499.954 271.818 500.465 268.725 499.241 265.678C497.834 262.174 494.464 259.636 490.856 259.362C488.313 259.167 482.16 259.411 479.951 265.828C477.793 271.888 477.106 273.579 477.078 273.649C474.35 279.842 471.901 295.898 474.253 299.875C474.604 300.468 474.933 300.563 475.15 300.582C476.36 300.697 476.619 300.072 477.455 295.06C477.769 293.179 478.16 290.84 478.78 287.966C478.825 287.758 478.939 287.572 479.105 287.438C479.271 287.305 479.477 287.232 479.69 287.232H479.691ZM499.089 275.547L499.086 275.551L499.089 275.547Z" fill="#1E2833"/>
<path d="M398.69 215.858C397.387 216.23 396.216 214.956 395.87 214.796C390.23 211.903 384.749 211.479 384.297 208.321C384.216 207.834 384.318 207.335 384.583 206.919C384.849 206.502 385.258 206.198 385.734 206.065C387.49 205.587 390.23 206.357 394.327 207.126C398.238 207.843 402.281 205.534 406.724 206.489" fill="white"/>
<path d="M398.203 216.856C397.064 216.856 396.132 216.144 395.64 215.768C395.563 215.709 395.499 215.658 395.448 215.625H395.445C393.669 214.75 391.839 213.988 389.967 213.343C386.494 212.073 383.751 211.072 383.377 208.454C383.261 207.742 383.413 207.014 383.804 206.407C384.194 205.801 384.795 205.36 385.492 205.17C387.095 204.734 389.211 205.16 392.139 205.751C392.87 205.898 393.656 206.057 394.501 206.215C396.181 206.523 397.957 206.203 399.837 205.865C402.081 205.459 404.403 205.042 406.922 205.583C407.162 205.637 407.371 205.782 407.504 205.989C407.636 206.196 407.681 206.446 407.63 206.686C407.578 206.926 407.433 207.135 407.227 207.269C407.021 207.403 406.77 207.45 406.529 207.399C404.37 206.935 402.234 207.32 400.166 207.693C398.205 208.046 396.178 208.413 394.159 208.042C393.302 207.881 392.508 207.721 391.769 207.572C389.092 207.032 387.158 206.643 385.978 206.963C385.723 207.035 385.504 207.2 385.363 207.424C385.223 207.649 385.17 207.917 385.217 208.178C385.426 209.639 387.304 210.392 390.606 211.599C392.546 212.268 394.442 213.059 396.283 213.966C396.456 214.059 396.619 214.169 396.771 214.294C397.179 214.607 397.863 215.13 398.434 214.967C398.551 214.933 398.674 214.923 398.796 214.937C398.917 214.951 399.035 214.989 399.142 215.048C399.249 215.107 399.343 215.187 399.419 215.282C399.495 215.378 399.551 215.488 399.585 215.605C399.618 215.722 399.629 215.845 399.615 215.966C399.601 216.087 399.563 216.205 399.504 216.311C399.444 216.418 399.364 216.512 399.269 216.588C399.173 216.663 399.063 216.72 398.945 216.753C398.704 216.822 398.454 216.857 398.203 216.856ZM395.462 215.632L395.481 215.641L395.462 215.632Z" fill="#1E2833"/>
<path d="M399.384 209.038C400.608 207.684 401.991 206.968 402.55 206.835C409.893 204.553 416.358 211.241 413.857 217.929C412.553 221.459 409.387 225.149 403.322 224.591C397.362 224.06 394.383 222.786 394.383 222.786C382.969 219.654 373.605 216.31 371.397 213.47C370.386 212.196 371.503 210.232 373.046 209.781C376.265 208.852 387.971 214.32 393.158 214.904" fill="white"/>
<path d="M404.549 225.577C404.128 225.577 403.69 225.557 403.236 225.515C397.602 225.013 394.563 223.861 394.08 223.666C380.447 219.922 372.788 216.773 370.661 214.039C370.375 213.668 370.186 213.233 370.111 212.771C370.036 212.309 370.077 211.836 370.231 211.394C370.426 210.804 370.759 210.269 371.203 209.833C371.647 209.397 372.189 209.074 372.784 208.889C374.754 208.321 378.449 209.475 384.299 211.443C387.653 212.572 391.122 213.739 393.263 213.98C393.384 213.993 393.502 214.031 393.609 214.09C393.716 214.149 393.81 214.228 393.886 214.324C393.962 214.419 394.019 214.529 394.053 214.646C394.087 214.763 394.097 214.886 394.083 215.007C394.07 215.128 394.032 215.246 393.973 215.352C393.914 215.459 393.834 215.553 393.739 215.629C393.643 215.705 393.533 215.762 393.416 215.796C393.298 215.829 393.175 215.84 393.054 215.826C390.715 215.563 387.31 214.417 383.704 213.203C379.762 211.877 374.855 210.225 373.306 210.673C373.005 210.772 372.731 210.94 372.505 211.163C372.28 211.386 372.109 211.658 372.007 211.957C371.944 212.11 371.923 212.277 371.944 212.441C371.965 212.605 372.028 212.76 372.127 212.893C373.173 214.237 377.478 217.183 394.629 221.889C394.67 221.901 394.71 221.915 394.749 221.931C394.777 221.943 397.698 223.157 403.404 223.665C409.583 224.235 412.057 220.113 412.983 217.608C413.49 216.293 413.608 214.86 413.324 213.48C413.04 212.1 412.365 210.831 411.38 209.821C410.297 208.703 408.92 207.913 407.407 207.542C405.894 207.17 404.306 207.233 402.827 207.722C402.806 207.728 402.786 207.734 402.765 207.739C401.726 208.152 400.803 208.811 400.076 209.658C399.91 209.841 399.679 209.951 399.432 209.964C399.185 209.977 398.944 209.891 398.76 209.726C398.577 209.561 398.467 209.33 398.454 209.084C398.441 208.838 398.527 208.597 398.692 208.414C400.039 206.925 401.57 206.125 402.299 205.937C406.1 204.767 410.095 205.763 412.732 208.542C413.948 209.808 414.78 211.391 415.134 213.109C415.487 214.827 415.347 216.609 414.729 218.251C413.891 220.527 411.265 225.577 404.549 225.577Z" fill="#1E2833"/>
<path d="M395.099 223.078C384.378 218.062 377.567 214.32 375.865 211.161C375.685 210.824 375.583 210.451 375.567 210.069C375.55 209.687 375.62 209.307 375.771 208.955C375.921 208.604 376.149 208.291 376.437 208.039C376.725 207.787 377.066 207.602 377.434 207.499C379.27 207.022 389.992 212.94 394.94 213.471" fill="white"/>
<path d="M395.099 224.007C394.963 224.007 394.828 223.977 394.704 223.918C383.956 218.889 376.918 215.075 375.045 211.6C374.798 211.14 374.659 210.63 374.636 210.108C374.613 209.586 374.709 209.066 374.915 208.586C375.121 208.106 375.432 207.679 375.826 207.335C376.22 206.991 376.687 206.74 377.191 206.6C378.322 206.306 380.581 207.223 384.811 209.008C388.447 210.542 392.567 212.281 395.04 212.545C395.163 212.557 395.282 212.593 395.391 212.65C395.5 212.708 395.596 212.787 395.674 212.883C395.752 212.978 395.81 213.088 395.845 213.206C395.88 213.324 395.892 213.447 395.879 213.57C395.865 213.692 395.828 213.81 395.768 213.918C395.709 214.026 395.629 214.121 395.532 214.197C395.435 214.274 395.325 214.331 395.206 214.364C395.087 214.398 394.963 214.407 394.841 214.392C392.095 214.098 387.84 212.303 384.086 210.719C381.537 209.644 378.364 208.314 377.65 208.4C377.423 208.466 377.213 208.582 377.037 208.74C376.86 208.898 376.721 209.093 376.63 209.311C376.532 209.535 376.486 209.778 376.495 210.022C376.505 210.266 376.57 210.505 376.686 210.72C378.406 213.91 386.742 218.141 395.494 222.236C395.686 222.326 395.842 222.478 395.935 222.668C396.029 222.857 396.054 223.073 396.008 223.28C395.962 223.486 395.847 223.67 395.681 223.802C395.516 223.935 395.31 224.006 395.098 224.006L395.099 224.007Z" fill="#1E2833"/>
<path d="M303.442 322.861H245.625C240.631 322.861 236.553 318.532 236.553 313.255C236.553 307.978 240.631 303.648 245.625 303.648H303.442C308.437 303.648 312.515 307.978 312.515 313.255C312.515 318.532 308.437 322.861 303.442 322.861Z" fill="#BED359"/>
<path d="M299.429 317.52H243.035C240.689 317.513 238.442 316.579 236.784 314.921C235.125 313.263 234.19 311.017 234.184 308.672C234.19 306.328 235.125 304.081 236.784 302.423C238.442 300.765 240.689 299.831 243.035 299.824H299.429C301.775 299.831 304.022 300.765 305.681 302.423C307.339 304.081 308.274 306.328 308.281 308.672C308.274 311.017 307.339 313.263 305.681 314.921C304.022 316.579 301.775 317.513 299.429 317.52Z" fill="white"/>
<path d="M299.429 318.468H243.034C240.435 318.468 237.942 317.436 236.105 315.598C234.267 313.761 233.234 311.27 233.234 308.672C233.234 306.074 234.267 303.582 236.105 301.745C237.942 299.908 240.435 298.876 243.034 298.876H299.429C302.028 298.876 304.52 299.908 306.358 301.745C308.196 303.582 309.228 306.074 309.228 308.672C309.228 311.27 308.196 313.761 306.358 315.598C304.52 317.436 302.028 318.468 299.429 318.468ZM243.034 300.772C240.938 300.772 238.928 301.604 237.446 303.086C235.964 304.567 235.131 306.577 235.131 308.672C235.131 310.767 235.964 312.776 237.446 314.258C238.928 315.739 240.938 316.572 243.034 316.572H299.429C301.524 316.572 303.535 315.739 305.017 314.258C306.499 312.776 307.331 310.767 307.331 308.672C307.331 306.577 306.499 304.567 305.017 303.086C303.535 301.604 301.524 300.772 299.429 300.772H243.034Z" fill="#1E2833"/>
<path d="M205.58 148.378C205.493 148.378 205.406 148.365 205.323 148.341L191.915 144.43C191.682 144.362 191.486 144.205 191.37 143.993C191.254 143.782 191.227 143.533 191.295 143.301C191.363 143.07 191.521 142.875 191.734 142.759C191.946 142.643 192.197 142.616 192.429 142.684L205.837 146.595C206.049 146.656 206.231 146.791 206.35 146.976C206.469 147.16 206.517 147.38 206.486 147.597C206.455 147.814 206.346 148.012 206.18 148.156C206.013 148.299 205.8 148.378 205.58 148.378Z" fill="#1E2833"/>
<path d="M192.174 143.558C189.797 136.161 177.029 134.797 169.807 137.343C169.472 137.465 169.136 137.586 168.801 137.738C167.673 138.255 166.393 138.342 165.206 137.98L162.219 137.04C161.037 136.649 160.039 135.84 159.416 134.767C159.241 134.462 159.047 134.169 158.837 133.887C154.418 127.673 143.144 121.488 136.958 126.157C130.772 130.825 128.364 139.405 136.805 147.257C143.113 153.108 152.773 149.773 154.053 148.924C156.551 147.257 158.593 145.408 159.781 143.346C159.949 143.017 160.225 142.756 160.564 142.607C160.903 142.457 161.283 142.429 161.64 142.528L162.554 142.8C162.902 142.924 163.195 143.164 163.384 143.48C163.573 143.795 163.646 144.166 163.591 144.528C163.377 146.863 163.956 149.561 165.053 152.35C165.602 153.745 171.574 162.051 180.107 160.869C191.503 159.323 194.52 150.955 192.174 143.558Z" fill="white"/>
<path d="M178.43 161.894C170.12 161.894 164.67 153.87 164.202 152.68C162.977 149.567 162.465 146.796 162.68 144.445C162.682 144.423 162.685 144.4 162.689 144.378C162.709 144.227 162.677 144.074 162.598 143.944C162.52 143.814 162.399 143.714 162.257 143.66L161.378 143.398C161.227 143.36 161.068 143.375 160.926 143.439C160.785 143.504 160.67 143.614 160.599 143.752C160.591 143.767 160.583 143.782 160.575 143.798C159.397 145.841 157.43 147.765 154.562 149.679C153.418 150.437 143.099 154.337 136.182 147.921C132.219 144.234 130.239 140.06 130.457 135.849C130.66 131.928 132.828 128.131 136.405 125.432C138.476 123.868 141.23 123.297 144.367 123.778C150.553 124.728 156.693 129.306 159.573 133.345C159.801 133.65 160.01 133.968 160.201 134.298C160.714 135.183 161.535 135.851 162.509 136.177L165.482 137.113C166.453 137.407 167.499 137.335 168.421 136.911C168.795 136.742 169.152 136.613 169.496 136.488C174.204 134.828 181.89 134.593 187.482 137.352C190.326 138.756 192.25 140.806 193.045 143.281V143.284C194.403 147.563 193.969 151.92 191.855 155.239C189.596 158.786 185.576 161.045 180.23 161.77C179.634 161.852 179.032 161.894 178.43 161.894ZM164.499 144.639C164.316 146.7 164.79 149.183 165.904 152.017C166.281 152.974 171.855 161.093 179.981 159.967C184.778 159.316 188.349 157.344 190.311 154.264C192.135 151.4 192.496 147.598 191.302 143.833C190.652 141.809 189.093 140.177 186.669 138.982C182.208 136.781 175.089 136.445 170.112 138.201C169.808 138.311 169.485 138.428 169.179 138.565C167.848 139.176 166.338 139.277 164.937 138.849L161.943 137.907C160.541 137.449 159.358 136.491 158.622 135.217C158.468 134.95 158.299 134.692 158.115 134.445C158.107 134.434 158.098 134.423 158.09 134.412C155.048 130.133 149.029 126.334 144.088 125.576C141.415 125.165 139.201 125.604 137.51 126.879C134.363 129.255 132.458 132.559 132.283 135.943C132.094 139.601 133.873 143.284 137.43 146.592C143.461 152.186 152.689 148.735 153.546 148.166C156.127 146.444 157.955 144.676 158.978 142.912C159.246 142.402 159.682 141.998 160.213 141.769C160.744 141.54 161.339 141.499 161.896 141.654L162.817 141.928C162.837 141.934 162.857 141.941 162.876 141.948C163.414 142.144 163.869 142.519 164.165 143.008C164.46 143.498 164.578 144.073 164.499 144.639Z" fill="#1E2833"/>
<path d="M186.255 152.56C187.963 147.197 184.652 141.369 178.86 139.544C173.069 137.719 166.989 140.587 165.281 145.95C163.574 151.313 166.884 157.14 172.676 158.965C178.468 160.791 184.547 157.923 186.255 152.56Z" fill="#1E2833"/>
<path d="M176.23 160.428C174.93 160.426 173.639 160.225 172.4 159.833C166.137 157.859 162.553 151.508 164.41 145.675C164.864 144.263 165.609 142.961 166.597 141.852C167.584 140.742 168.794 139.849 170.147 139.23C172.97 137.941 176.175 137.744 179.136 138.677C182.097 139.611 184.603 141.607 186.166 144.278C186.918 145.559 187.392 146.981 187.558 148.455C187.723 149.929 187.576 151.421 187.126 152.835C186.676 154.249 185.933 155.553 184.944 156.663C183.956 157.773 182.745 158.665 181.388 159.28C179.776 160.039 178.014 160.431 176.23 160.428ZM166.153 146.224C164.6 151.1 167.65 156.427 172.952 158.098C175.47 158.915 178.205 158.75 180.605 157.636C181.735 157.128 182.744 156.388 183.567 155.466C184.39 154.544 185.009 153.46 185.383 152.285C185.758 151.109 185.879 149.868 185.74 148.643C185.6 147.417 185.203 146.235 184.574 145.172C183.239 142.902 181.105 141.205 178.584 140.411C176.064 139.616 173.336 139.781 170.931 140.872C169.805 141.386 168.798 142.126 167.976 143.048C167.153 143.969 166.532 145.051 166.153 146.224Z" fill="#1E2833"/>
<path d="M154.905 142.458C156.683 136.852 153.205 130.762 147.136 128.857C141.067 126.952 134.706 129.953 132.928 135.559C131.15 141.166 134.628 147.255 140.697 149.16C146.766 151.065 153.127 148.065 154.905 142.458Z" fill="#1E2833"/>
<path d="M144.388 150.643C143.041 150.642 141.701 150.435 140.416 150.03C133.879 147.976 130.129 141.364 132.055 135.291C132.528 133.82 133.303 132.464 134.332 131.308C135.361 130.153 136.621 129.223 138.031 128.58C140.97 127.213 144.321 127.006 147.408 128.001C153.945 130.054 157.695 136.666 155.768 142.739C154.231 147.582 149.54 150.643 144.388 150.643ZM143.415 129.201C141.824 129.198 140.253 129.546 138.814 130.222C137.632 130.76 136.575 131.537 135.712 132.504C134.849 133.472 134.197 134.607 133.8 135.839C132.177 140.956 135.391 146.544 140.967 148.295C146.543 150.047 152.401 147.309 154.026 142.192C155.651 137.075 152.434 131.486 146.859 129.735C145.745 129.383 144.584 129.203 143.415 129.201Z" fill="#1E2833"/>
<path d="M105.225 200.677L77.8594 173.758L114.259 136.846L142.008 136.023L141.625 163.766L105.225 200.677Z" fill="white"/>
<path d="M105.225 201.558C104.994 201.558 104.771 201.467 104.606 201.305L77.2399 174.385C77.1573 174.304 77.0915 174.207 77.0464 174.101C77.0012 173.994 76.9775 173.879 76.9766 173.764C76.9757 173.648 76.9977 173.533 77.0413 173.426C77.0848 173.318 77.1491 173.221 77.2305 173.138L113.63 136.228C113.79 136.067 114.006 135.973 114.233 135.966L141.982 135.143C142.101 135.139 142.219 135.16 142.33 135.203C142.441 135.247 142.542 135.312 142.626 135.395C142.711 135.479 142.779 135.578 142.824 135.688C142.869 135.798 142.892 135.916 142.891 136.035L142.508 163.777C142.505 164.004 142.414 164.222 142.254 164.384L105.854 201.295C105.773 201.378 105.676 201.444 105.57 201.489C105.463 201.535 105.348 201.559 105.232 201.56L105.225 201.558ZM79.1079 173.747L105.216 199.43L140.748 163.4L141.112 136.932L114.64 137.716L79.1079 173.747Z" fill="#1E2833"/>
<path d="M121.969 154.875C122.042 150.932 118.901 147.676 114.952 147.603C111.004 147.53 107.744 150.668 107.671 154.611C107.598 158.554 110.739 161.81 114.688 161.883C118.636 161.956 121.896 158.819 121.969 154.875Z" fill="white"/>
<path d="M114.82 162.766C113.231 162.766 111.678 162.295 110.357 161.414C109.036 160.532 108.006 159.279 107.398 157.813C106.79 156.347 106.631 154.734 106.941 153.177C107.251 151.621 108.016 150.192 109.139 149.07C110.263 147.948 111.694 147.183 113.253 146.874C114.811 146.564 116.426 146.723 117.894 147.33C119.362 147.938 120.616 148.966 121.499 150.285C122.382 151.605 122.853 153.156 122.853 154.743C122.851 156.87 122.003 158.909 120.497 160.413C118.991 161.917 116.95 162.763 114.82 162.766ZM114.82 148.483C113.58 148.483 112.368 148.85 111.338 149.538C110.307 150.226 109.504 151.203 109.029 152.347C108.555 153.491 108.431 154.75 108.672 155.964C108.914 157.178 109.511 158.293 110.388 159.169C111.264 160.044 112.381 160.641 113.597 160.882C114.813 161.124 116.073 161 117.218 160.526C118.364 160.052 119.342 159.25 120.031 158.22C120.72 157.191 121.087 155.981 121.087 154.743C121.086 153.083 120.425 151.492 119.25 150.318C118.075 149.145 116.481 148.485 114.82 148.483Z" fill="#1E2833"/>
<path d="M109.082 186.745C113.031 186.745 116.232 183.548 116.232 179.604C116.232 175.66 113.031 172.463 109.082 172.463C105.132 172.463 101.931 175.66 101.931 179.604C101.931 183.548 105.132 186.745 109.082 186.745Z" fill="white"/>
<path d="M109.082 187.628C107.493 187.628 105.94 187.157 104.618 186.276C103.297 185.394 102.268 184.141 101.66 182.675C101.052 181.209 100.893 179.596 101.203 178.04C101.513 176.483 102.278 175.054 103.401 173.932C104.525 172.81 105.956 172.046 107.514 171.736C109.073 171.427 110.688 171.586 112.156 172.193C113.624 172.8 114.878 173.828 115.761 175.148C116.644 176.467 117.115 178.018 117.115 179.605C117.112 181.732 116.265 183.771 114.759 185.275C113.253 186.779 111.211 187.626 109.082 187.628ZM109.082 173.345C107.842 173.345 106.63 173.712 105.599 174.4C104.569 175.088 103.765 176.066 103.291 177.21C102.817 178.353 102.692 179.612 102.934 180.826C103.176 182.04 103.773 183.156 104.65 184.031C105.526 184.907 106.643 185.503 107.859 185.744C109.075 185.986 110.335 185.862 111.48 185.388C112.625 184.914 113.604 184.112 114.293 183.083C114.982 182.053 115.349 180.843 115.349 179.605C115.347 177.945 114.686 176.354 113.511 175.181C112.336 174.007 110.743 173.347 109.082 173.345Z" fill="#1E2833"/>
<path d="M131.739 168.084H131.71L92.4261 166.791C92.192 166.783 91.9705 166.683 91.8105 166.512C91.6505 166.341 91.565 166.114 91.5728 165.88C91.5806 165.646 91.6811 165.425 91.8521 165.265C92.0232 165.105 92.2508 165.02 92.485 165.028L131.769 166.321C132.003 166.325 132.226 166.421 132.388 166.59C132.551 166.758 132.641 166.983 132.637 167.217C132.633 167.451 132.536 167.674 132.368 167.836C132.199 167.999 131.973 168.088 131.739 168.084Z" fill="#1E2833"/>
<path d="M367.983 129.109C365.206 129.084 362.46 129.697 359.951 130.9C356.527 132.596 353.912 135.11 352.666 138.157L344.727 157.446C342.953 161.719 347.374 166.023 353.538 166.023H398.711C404.876 166.023 409.296 161.719 407.522 157.446L399.583 138.157C398.556 135.675 396.594 133.539 394.041 131.905C391.157 130.117 387.838 129.171 384.453 129.172L367.983 129.109Z" fill="white"/>
<path d="M398.711 166.965H353.538C349.648 166.965 346.165 165.346 344.447 162.741C343.882 161.926 343.531 160.978 343.429 159.988C343.328 158.998 343.478 157.998 343.865 157.082L351.804 137.796C353.095 134.635 355.843 131.885 359.54 130.054C362.177 128.79 365.064 128.145 367.984 128.167H367.987L384.456 128.229C388.017 128.226 391.508 129.223 394.54 131.108C397.333 132.895 399.374 135.207 400.445 137.794L408.384 157.085C408.77 158 408.92 158.999 408.818 159.988C408.716 160.978 408.366 161.925 407.801 162.74C406.084 165.346 402.601 166.965 398.711 166.965ZM367.983 130.051C365.348 130.03 362.742 130.61 360.361 131.748C357.075 133.375 354.648 135.779 353.53 138.516L345.59 157.807C345.323 158.437 345.22 159.126 345.292 159.807C345.365 160.488 345.609 161.139 346.003 161.697C347.358 163.752 350.315 165.08 353.537 165.08H398.71C401.933 165.08 404.891 163.752 406.244 161.697C406.638 161.139 406.882 160.489 406.955 159.808C407.027 159.128 406.925 158.44 406.658 157.81L398.721 138.518C397.799 136.291 396.008 134.279 393.541 132.701C390.805 131.004 387.655 130.109 384.444 130.114L367.983 130.051Z" fill="#1E2833"/>
<path d="M387.349 135.581H365.276C365.028 135.581 364.791 135.482 364.615 135.305C364.44 135.128 364.342 134.889 364.342 134.639V124.083C364.345 121.634 365.31 119.287 367.026 117.555C368.742 115.824 371.068 114.85 373.495 114.847H379.13C381.556 114.85 383.883 115.824 385.599 117.555C387.315 119.287 388.28 121.634 388.283 124.083V134.639C388.283 134.762 388.259 134.885 388.212 134.999C388.165 135.114 388.096 135.218 388.009 135.305C387.922 135.393 387.819 135.462 387.706 135.509C387.593 135.557 387.471 135.581 387.349 135.581ZM366.21 133.696H386.415V124.083C386.413 122.134 385.644 120.265 384.279 118.887C382.913 117.509 381.061 116.734 379.13 116.732H373.495C371.563 116.734 369.712 117.509 368.346 118.887C366.98 120.265 366.212 122.134 366.21 124.083V133.696Z" fill="#1E2833"/>
<path d="M264.797 158.663H298.29C298.396 158.663 298.497 158.621 298.571 158.546C298.646 158.471 298.688 158.37 298.688 158.264C298.688 158.158 298.646 158.057 298.571 157.982C298.497 157.907 298.396 157.865 298.29 157.865H264.797C264.691 157.865 264.59 157.907 264.516 157.982C264.441 158.057 264.399 158.158 264.399 158.264C264.399 158.37 264.441 158.471 264.516 158.546C264.59 158.621 264.691 158.663 264.797 158.663Z" fill="#1E2833"/>
<path d="M252.672 159.124H298.148C298.291 159.124 298.428 159.075 298.53 158.989C298.631 158.902 298.688 158.785 298.688 158.662C298.688 158.54 298.631 158.423 298.53 158.336C298.428 158.25 298.291 158.201 298.148 158.201H252.672C252.529 158.201 252.392 158.25 252.291 158.336C252.19 158.423 252.133 158.54 252.133 158.662C252.133 158.785 252.19 158.902 252.291 158.989C252.392 159.075 252.529 159.124 252.672 159.124Z" fill="#1E2833"/>
<path d="M241.006 132.375H264.425L275.546 158.263H252.127L241.006 132.375Z" fill="white"/>
<path d="M252.126 158.663H275.545C275.611 158.663 275.676 158.646 275.733 158.615C275.791 158.584 275.841 158.539 275.877 158.483C275.913 158.428 275.935 158.365 275.941 158.299C275.946 158.233 275.936 158.167 275.91 158.106L264.789 132.218C264.758 132.147 264.708 132.086 264.643 132.043C264.578 132 264.502 131.978 264.424 131.978H241.005C240.939 131.978 240.875 131.994 240.817 132.025C240.759 132.057 240.71 132.102 240.673 132.157C240.637 132.212 240.615 132.276 240.61 132.341C240.604 132.407 240.615 132.473 240.641 132.534L251.761 158.422C251.792 158.494 251.843 158.555 251.907 158.597C251.972 158.64 252.048 158.663 252.126 158.663ZM274.941 157.866H252.387L241.609 132.775H264.163L274.941 157.866Z" fill="#1E2833"/>
<path d="M242 135.088H265.406C265.511 135.088 265.612 135.046 265.686 134.972C265.761 134.897 265.803 134.795 265.803 134.69C265.803 134.584 265.761 134.483 265.686 134.408C265.612 134.333 265.511 134.291 265.406 134.291H242C241.894 134.291 241.793 134.333 241.719 134.408C241.644 134.483 241.602 134.584 241.602 134.69C241.602 134.795 241.644 134.897 241.719 134.972C241.793 135.046 241.894 135.088 242 135.088Z" fill="#1E2833"/>
<path d="M363.645 181.789L364.059 213.554L375.003 213.583L374.796 203.894L391.094 213.583H419.461C419.816 208.101 416.503 202.709 411.77 200.931C411.504 200.842 411.238 200.723 410.972 200.605C401.802 196.308 394.821 194.56 390.355 181.819L363.645 181.789Z" fill="white"/>
<path d="M419.462 214.472H391.095C390.936 214.472 390.779 214.429 390.642 214.348L375.718 205.475L375.891 213.565C375.894 213.683 375.873 213.801 375.829 213.911C375.786 214.021 375.721 214.121 375.638 214.206C375.555 214.29 375.457 214.357 375.348 214.403C375.239 214.449 375.122 214.473 375.004 214.473H375.001L364.057 214.443C363.824 214.442 363.601 214.35 363.435 214.186C363.269 214.022 363.175 213.799 363.172 213.565L362.758 181.801C362.756 181.683 362.778 181.566 362.822 181.457C362.866 181.348 362.931 181.249 363.014 181.165C363.096 181.081 363.195 181.015 363.303 180.969C363.411 180.924 363.528 180.9 363.645 180.9L390.355 180.93C390.539 180.93 390.718 180.987 390.868 181.094C391.018 181.2 391.131 181.351 391.192 181.524C395.021 192.448 400.58 194.944 408.274 198.399C409.266 198.844 410.292 199.305 411.347 199.8C411.586 199.906 411.825 200.013 412.05 200.087L412.08 200.099C417.168 202.01 420.721 207.833 420.345 213.64C420.33 213.865 420.231 214.076 420.067 214.231C419.903 214.385 419.687 214.472 419.462 214.472ZM391.338 212.694H418.6C418.564 207.929 415.612 203.331 411.474 201.769C411.173 201.667 410.888 201.54 410.611 201.417C409.554 200.922 408.535 200.464 407.549 200.022C399.89 196.582 393.813 193.854 389.731 182.708L364.544 182.678L364.935 212.667L374.097 212.692L373.909 203.913C373.906 203.755 373.945 203.598 374.022 203.46C374.099 203.321 374.212 203.206 374.349 203.126C374.486 203.046 374.641 203.004 374.8 203.005C374.958 203.006 375.113 203.049 375.25 203.13L391.338 212.694Z" fill="#1E2833"/>
<path d="M399.762 193.049C398.417 193.049 397.101 192.65 395.983 191.901C394.864 191.152 393.992 190.087 393.477 188.842C392.962 187.597 392.827 186.227 393.09 184.905C393.352 183.583 394 182.368 394.952 181.415C395.903 180.462 397.115 179.813 398.435 179.55C399.755 179.287 401.123 179.422 402.366 179.938C403.609 180.454 404.671 181.327 405.419 182.448C406.167 183.569 406.566 184.886 406.566 186.234C406.563 188.041 405.846 189.773 404.571 191.051C403.295 192.329 401.566 193.047 399.762 193.049ZM399.762 181.197C398.768 181.197 397.796 181.492 396.969 182.046C396.142 182.599 395.497 183.386 395.117 184.306C394.736 185.227 394.636 186.24 394.83 187.217C395.024 188.194 395.503 189.092 396.207 189.796C396.91 190.5 397.806 190.98 398.781 191.175C399.757 191.369 400.768 191.269 401.687 190.888C402.605 190.507 403.391 189.861 403.943 189.033C404.496 188.204 404.791 187.23 404.791 186.234C404.789 184.899 404.259 183.618 403.316 182.674C402.374 181.729 401.095 181.198 399.762 181.197Z" fill="#1E2833"/>
<path d="M403.133 195.775C401.788 195.775 400.472 195.375 399.354 194.626C398.235 193.877 397.363 192.813 396.848 191.568C396.333 190.322 396.198 188.952 396.461 187.63C396.723 186.308 397.371 185.094 398.323 184.141C399.274 183.188 400.486 182.538 401.806 182.275C403.126 182.013 404.494 182.147 405.737 182.663C406.98 183.179 408.043 184.053 408.79 185.173C409.538 186.294 409.937 187.612 409.937 188.96C409.935 190.767 409.217 192.499 407.942 193.776C406.666 195.054 404.937 195.773 403.133 195.775ZM403.133 183.922C402.139 183.922 401.167 184.218 400.34 184.771C399.513 185.325 398.868 186.112 398.488 187.032C398.107 187.952 398.007 188.965 398.201 189.942C398.396 190.92 398.874 191.817 399.578 192.522C400.281 193.226 401.177 193.706 402.152 193.9C403.128 194.095 404.139 193.995 405.058 193.614C405.977 193.232 406.762 192.587 407.314 191.758C407.867 190.93 408.162 189.956 408.162 188.96C408.16 187.624 407.63 186.344 406.687 185.399C405.745 184.455 404.467 183.924 403.133 183.922Z" fill="#1E2833"/>
<path d="M504.618 295.51H447.862C445.821 295.51 444.167 297.16 444.167 299.195V330.244C444.167 332.279 445.821 333.929 447.862 333.929H504.618C506.659 333.929 508.313 332.279 508.313 330.244V299.195C508.313 297.16 506.659 295.51 504.618 295.51Z" fill="white"/>
<path d="M504.618 334.85H447.862C446.637 334.849 445.463 334.363 444.597 333.5C443.731 332.636 443.244 331.465 443.243 330.244V299.194C443.244 297.973 443.731 296.802 444.597 295.939C445.463 295.075 446.637 294.589 447.862 294.588H504.618C505.843 294.589 507.017 295.075 507.883 295.939C508.749 296.802 509.236 297.973 509.237 299.194V330.244C509.236 331.465 508.749 332.636 507.883 333.5C507.017 334.363 505.843 334.849 504.618 334.85ZM447.862 296.43C447.127 296.431 446.423 296.723 445.903 297.241C445.384 297.759 445.091 298.461 445.091 299.194V330.244C445.091 330.977 445.384 331.679 445.903 332.198C446.423 332.716 447.127 333.007 447.862 333.008H504.618C505.353 333.007 506.057 332.716 506.577 332.198C507.097 331.679 507.389 330.977 507.39 330.244V299.194C507.389 298.461 507.097 297.759 506.577 297.241C506.057 296.723 505.353 296.431 504.618 296.43H447.862Z" fill="#1E2833"/>
<path d="M507.482 298.459H445.276C444.296 298.456 443.358 298.067 442.666 297.377C441.973 296.686 441.583 295.751 441.58 294.774V291.703C441.583 290.727 441.973 289.791 442.666 289.101C443.358 288.411 444.296 288.021 445.276 288.019H507.482C508.461 288.021 509.4 288.411 510.092 289.101C510.785 289.791 511.175 290.727 511.178 291.703V294.774C511.175 295.751 510.785 296.686 510.092 297.377C509.4 298.067 508.461 298.456 507.482 298.459Z" fill="white"/>
<path d="M507.482 299.38H445.276C444.051 299.378 442.877 298.893 442.011 298.029C441.145 297.166 440.658 295.995 440.656 294.774V291.703C440.658 290.482 441.145 289.311 442.011 288.447C442.877 287.584 444.051 287.098 445.276 287.097H507.482C508.707 287.098 509.881 287.584 510.747 288.447C511.613 289.311 512.1 290.482 512.102 291.703V294.774C512.1 295.995 511.613 297.166 510.747 298.029C509.881 298.893 508.707 299.378 507.482 299.38ZM445.276 288.939C444.541 288.94 443.836 289.231 443.317 289.749C442.797 290.268 442.505 290.97 442.504 291.703V294.774C442.505 295.506 442.797 296.209 443.317 296.727C443.836 297.245 444.541 297.536 445.276 297.537H507.482C508.217 297.536 508.922 297.245 509.441 296.727C509.961 296.209 510.253 295.506 510.254 294.774V291.703C510.253 290.97 509.961 290.268 509.441 289.749C508.922 289.231 508.217 288.94 507.482 288.939H445.276Z" fill="#1E2833"/>
<path d="M476.472 294.62C475.199 294.619 473.977 294.114 473.077 293.216C472.176 292.318 471.67 291.1 471.668 289.83V267.69C471.67 266.42 472.176 265.202 473.077 264.304C473.977 263.406 475.199 262.901 476.472 262.899C477.746 262.901 478.967 263.406 479.867 264.304C480.768 265.202 481.275 266.42 481.276 267.69V289.83C481.269 291.098 480.761 292.313 479.862 293.21C478.962 294.107 477.744 294.614 476.472 294.62Z" fill="white"/>
<path d="M476.472 295.541C474.953 295.539 473.498 294.937 472.424 293.866C471.35 292.795 470.746 291.344 470.744 289.829V267.689C470.744 266.174 471.348 264.722 472.422 263.65C473.496 262.579 474.953 261.978 476.472 261.978C477.991 261.978 479.448 262.579 480.522 263.65C481.597 264.722 482.2 266.174 482.2 267.689V289.829C482.198 291.344 481.594 292.795 480.52 293.866C479.447 294.937 477.991 295.539 476.472 295.541ZM476.472 263.82C475.443 263.821 474.457 264.229 473.73 264.955C473.002 265.68 472.593 266.663 472.592 267.689V289.829C472.592 290.337 472.692 290.841 472.887 291.31C473.082 291.779 473.368 292.206 473.728 292.565C474.089 292.924 474.516 293.209 474.987 293.404C475.458 293.598 475.963 293.698 476.472 293.698C476.982 293.698 477.486 293.598 477.957 293.404C478.428 293.209 478.855 292.924 479.216 292.565C479.576 292.206 479.862 291.779 480.057 291.31C480.252 290.841 480.352 290.337 480.352 289.829V267.689C480.351 266.663 479.942 265.68 479.215 264.954C478.487 264.229 477.501 263.821 476.472 263.82Z" fill="#1E2833"/>
<path d="M476.471 291.211C477.407 291.211 478.165 290.455 478.165 289.522C478.165 288.589 477.407 287.833 476.471 287.833C475.536 287.833 474.777 288.589 474.777 289.522C474.777 290.455 475.536 291.211 476.471 291.211Z" fill="#1E2833"/>
<path d="M578.479 336.036C578.432 336.044 578.385 336.047 578.337 336.047L49.4543 334.433C49.2092 334.432 48.9744 334.334 48.8017 334.16C48.6289 333.986 48.5323 333.751 48.533 333.506C48.5338 333.261 48.6319 333.026 48.8057 332.853C48.9796 332.68 49.2149 332.583 49.46 332.584L578.343 334.198C578.576 334.198 578.8 334.286 578.971 334.445C579.142 334.604 579.246 334.821 579.264 335.054C579.281 335.286 579.21 335.517 579.064 335.699C578.919 335.881 578.71 336.002 578.479 336.036Z" fill="#1E2833"/>
<path d="M487.904 319.319C487.626 319.67 487.265 319.946 486.853 320.124C485.676 320.645 484.488 320.467 483.729 319.435L489.584 316.847C489.521 316.614 489.442 316.385 489.348 316.163C488.408 314.052 486.125 312.957 483.935 313.925C481.626 314.945 480.803 317.326 481.768 319.494C482.746 321.693 485.057 322.654 487.484 321.589C488.079 321.332 488.614 320.953 489.052 320.476L487.904 319.319ZM484.559 315.36C485.516 314.938 486.683 315.072 487.469 316.234L483.141 318.146C482.872 316.949 483.367 315.887 484.559 315.36Z" fill="#454545"/>
<path d="M458.62 319.482C458.62 321.093 457.216 321.958 455.473 321.958C453.856 321.958 452.695 321.234 452.18 320.076L453.68 319.208C453.939 319.931 454.584 320.366 455.473 320.366C456.248 320.366 456.844 320.108 456.844 319.465C456.844 318.033 452.503 318.837 452.503 315.958C452.503 314.447 453.809 313.498 455.457 313.498C456.78 313.498 457.882 314.11 458.442 315.17L456.974 315.992C456.683 315.364 456.118 315.075 455.457 315.075C454.826 315.075 454.278 315.348 454.278 315.928C454.278 317.39 458.62 316.506 458.62 319.482Z" fill="#454545"/>
<path d="M463.642 313.486C462.544 313.486 461.673 313.888 461.139 314.724V310.483C460.677 310.483 460.234 310.666 459.908 310.992C459.581 311.317 459.397 311.758 459.396 312.219V321.742H461.139V317.427C461.139 315.785 462.045 315.11 463.19 315.11C464.287 315.11 464.997 315.755 464.997 316.976V321.737H466.742V316.799C466.742 314.708 465.45 313.486 463.642 313.486Z" fill="#454545"/>
<path d="M476.105 313.696V321.737H474.362V320.578C473.749 321.43 472.797 321.946 471.537 321.946C469.341 321.946 467.518 320.097 467.518 317.715C467.518 315.334 469.341 313.486 471.543 313.486C472.803 313.486 473.755 314 474.368 314.836V313.696H476.105ZM474.362 317.723C474.362 316.228 473.264 315.146 471.812 315.146C470.36 315.146 469.261 316.224 469.261 317.723C469.261 319.223 470.358 320.301 471.812 320.301C473.265 320.301 474.362 319.212 474.362 317.715V317.723Z" fill="#454545"/>
<path d="M481.728 313.545V315.433C480.582 315.353 479.242 315.883 479.242 317.689V321.742H477.492V313.696H479.235V315.046C479.72 313.953 480.705 313.545 481.728 313.545Z" fill="#454545"/>
<path d="M492.21 310C491.748 310 491.305 310.184 490.979 310.509C490.652 310.835 490.469 311.276 490.469 311.737V321.741H492.212V310H492.21Z" fill="#C5C5C5"/>
<path d="M500.878 313.695L497.78 321.994C497.02 324.035 495.697 325.065 493.841 324.952V323.328C494.973 323.392 495.584 322.814 495.987 321.752L496.068 321.591L492.646 313.697H494.551L496.955 319.534L499.03 313.695H500.878Z" fill="#C5C5C5"/>
<g clip-path="url(#clip1_1141_103695)">
<path d="M265.794 266.054L257.876 261.936L256.829 263.951L264.747 268.069L265.794 266.054Z" stroke="#1E2833" stroke-width="0.877119" stroke-miterlimit="10"/>
<path d="M284.394 212.764L290.306 215.838L287.629 221.102L285.909 223.356L275.986 242.299L278.708 246.063L279.821 249.778L279.65 252.332L276.915 255.703L274.971 258.167L274.842 261.134L275.386 264.822L275.027 268.232L274.033 270.896L273.134 272.431L270.461 274.772L266.988 276.058L262.816 275.712L258.243 274.095L253.769 271.602L250.568 268.881L248.701 265.932L247.895 261.11L249.083 256.781L251.119 254.448L254.364 252.372L257.102 250.717L259.378 247.677L260.405 243.546L261.832 241.414L265.105 239.775L269.439 239.674L271.29 239.408L280.73 221.233L281.12 219.068L284.394 212.764Z" fill="white"/>
<path d="M284.393 212.763L290.304 215.837L287.096 222.015L285.907 223.355L275.92 242.423L271.04 239.885L280.729 221.232L281.119 219.066L284.393 212.763Z" stroke="#1E2833" stroke-width="0.877119" stroke-miterlimit="10"/>
<path d="M285.398 214.842L285.393 214.839C285.056 214.664 284.642 214.795 284.467 215.132L282.894 218.161C282.719 218.497 282.85 218.912 283.186 219.087L283.191 219.089C283.527 219.264 283.942 219.133 284.117 218.796L285.69 215.768C285.865 215.431 285.734 215.017 285.398 214.842Z" stroke="#1E2833" stroke-width="0.877119" stroke-miterlimit="10"/>
<path d="M287.903 216.143L287.898 216.141C287.562 215.966 287.148 216.097 286.973 216.434L285.4 219.462C285.225 219.799 285.356 220.214 285.692 220.389L285.697 220.391C286.033 220.566 286.448 220.435 286.622 220.098L288.196 217.07C288.37 216.733 288.24 216.318 287.903 216.143Z" stroke="#1E2833" stroke-width="0.877119" stroke-miterlimit="10"/>
<path d="M259.905 263.919L282.257 220.888" stroke="#1E2833" stroke-width="0.877119" stroke-miterlimit="10"/>
<path d="M262.752 265.401L285.104 222.369" stroke="#1E2833" stroke-width="0.877119" stroke-miterlimit="10"/>
<path d="M261.801 264.906L284.153 221.874" stroke="#1E2833" stroke-width="0.877119" stroke-miterlimit="10"/>
<path d="M260.852 264.412L283.204 221.38" stroke="#1E2833" stroke-width="0.877119" stroke-miterlimit="10"/>
<path d="M266.022 255.357C267.68 256.219 269.725 255.572 270.588 253.911C271.45 252.249 270.805 250.203 269.147 249.34C267.488 248.478 265.444 249.125 264.581 250.787C263.718 252.448 264.363 254.494 266.022 255.357Z" stroke="#1E2833" stroke-width="0.877119" stroke-miterlimit="10"/>
<path d="M279.915 250.799C280.105 253.656 276.309 255.81 275.355 257.388C274.401 258.965 274.682 260.097 275.331 264.236C275.913 267.963 273.55 272.5 272.165 273.469C270.323 274.764 267.474 278.403 258.042 273.914C252.323 271.195 247.144 267.682 248 260.031C248.604 254.515 254.731 252.204 254.731 252.204C254.731 252.204 259.508 250.388 260.091 245.02C260.675 239.653 266.739 239.358 268.033 239.461C268.008 239.486 279.22 240.044 279.915 250.799Z" stroke="#1E2833" stroke-width="0.877119" stroke-miterlimit="10"/>
<path d="M265.008 265.389L258.266 261.883L257.13 264.07L263.872 267.576L265.008 265.389Z" stroke="#1E2833" stroke-width="0.584746" stroke-miterlimit="10"/>
</g>
<g clip-path="url(#clip2_1141_103695)">
<path d="M183.748 256.945H136.745V266.306H183.748V256.945Z" fill="white" stroke="#1E2833" stroke-width="0.584746" stroke-miterlimit="10"/>
<path d="M148.796 245.624H140.968V256.94H148.796V245.624Z" fill="white" stroke="#1E2833" stroke-width="0.584746" stroke-miterlimit="10"/>
<path d="M155.689 230.897H192.414C194.242 230.897 195.996 231.626 197.288 232.922C198.581 234.218 199.307 235.976 199.307 237.808V256.944H148.796V237.808C148.796 235.976 149.522 234.218 150.815 232.922C152.108 231.626 153.861 230.897 155.689 230.897Z" fill="white" stroke="#1E2833" stroke-width="0.584746" stroke-miterlimit="10"/>
<path d="M199.302 245.624H183.023V266.3H199.302V245.624Z" fill="white" stroke="#1E2833" stroke-width="0.584746" stroke-miterlimit="10"/>
<path d="M145.186 251.562H136.745V266.304H145.186V251.562Z" fill="white" stroke="#1E2833" stroke-width="0.584746" stroke-miterlimit="10"/>
<path d="M183.748 251.562H175.308V266.304H183.748V251.562Z" fill="white" stroke="#1E2833" stroke-width="0.584746" stroke-miterlimit="10"/>
<path d="M139.302 254.733C142.764 254.733 145.571 252.567 145.571 249.896C145.571 247.225 142.764 245.06 139.302 245.06C135.839 245.06 133.033 247.225 133.033 249.896C133.033 252.567 135.839 254.733 139.302 254.733Z" fill="white" stroke="#1E2833" stroke-width="0.584746" stroke-miterlimit="10"/>
<path d="M181.321 254.733C184.784 254.733 187.59 252.567 187.59 249.896C187.59 247.225 184.784 245.06 181.321 245.06C177.859 245.06 175.052 247.225 175.052 249.896C175.052 252.567 177.859 254.733 181.321 254.733Z" fill="white" stroke="#1E2833" stroke-width="0.584746" stroke-miterlimit="10"/>
</g>
</g>
<defs>
<clipPath id="clip0_1141_103695">
<rect width="590" height="345" fill="white"/>
</clipPath>
<clipPath id="clip1_1141_103695">
<rect width="29.504" height="67.3305" fill="white" transform="matrix(0.887185 0.461415 -0.460954 0.887424 274.412 207.093)"/>
</clipPath>
<clipPath id="clip2_1141_103695">
<rect width="66.8359" height="35.9759" fill="white" transform="translate(132.75 230.614)"/>
</clipPath>
</defs>
</svg>
